<?xml version="1.0" encoding="utf-8"?>
<!-- Generator: Adobe Illustrator 20.1.0, SVG Export Plug-In . SVG Version: 6.00 Build 0)  -->
<svg version="1.1" id="Layer_1" xmlns="http://www.w3.org/2000/svg" xmlns:xlink="http://www.w3.org/1999/xlink" x="0px" y="0px"
	 viewBox="0 0 1190.6 841.9" style="enable-background:new 0 0 1190.6 841.9;" xml:space="preserve">
<style type="text/css">
	.st0{fill:#F5F6F6;}
	.st1{fill:none;}
</style>
<g>
	<g>
		<g>
			<g>
				<path class="st0" d="M594.4,209.8c2.2,1.3,3.2,3.2,3.2,5.8c0,8.4,0.1,16.7-0.1,25.1c0,1.5-0.5,3.6-1.6,4.4
					c-1.2,0.9-3.5,1.4-4.8,0.9c-1.4-0.6-3-2.6-3.1-4.1c-0.3-9.2-0.3-18.4,0-27.6c0-1.5,1.8-3,2.7-4.6
					C592,209.8,593.2,209.8,594.4,209.8z"/>
				<path class="st0" d="M386.5,416.2c9-0.1,17.9-0.1,26.9-0.1c3.1,0,5,1.7,5,4.8c0,3.1-1.8,4.8-5,4.8c-9,0-17.9-0.1-26.9-0.1
					C386.5,422.4,386.5,419.3,386.5,416.2z"/>
				<path class="st0" d="M597.6,613.6c0,4.3,0.1,8.5,0,12.8c-0.1,3.7-2,5.7-5,5.5c-2.9-0.1-4.6-2.1-4.6-5.6
					c-0.1-8.6-0.1-17.3,0-25.9c0-3.6,1.6-5.4,4.6-5.5c3.1-0.1,4.9,1.7,5,5.5C597.7,604.8,597.6,609.2,597.6,613.6z"/>
				<path class="st0" d="M701.2,600.3c-1.3,1.3-2.5,3.3-4.1,3.6c-1.5,0.3-4.1-0.5-5.1-1.8c-2.1-2.5-3.4-5.6-5-8.5
					c-2.8-5-5.7-10.1-8.5-15.1c-1.9-3.5-1.3-6,1.6-7.6c2.7-1.4,4.9-0.6,6.9,2.9c4.2,7.4,8.4,14.8,12.5,22.2
					C700,597.1,700.4,598.4,701.2,600.3z"/>
				<path class="st0" d="M490.7,604.2c-5,0-7.1-3.8-4.9-7.6c4.6-7.7,9.4-15.3,14.1-22.9c0.1-0.2,0.3-0.4,0.4-0.6
					c1.9-2.3,4.1-2.7,6.6-1.2c2.5,1.6,3,3.9,1.5,6.4c-4.8,7.8-9.6,15.7-14.5,23.4C493,603.1,491.3,603.8,490.7,604.2z"/>
				<path class="st0" d="M439,336.5c-1.8-0.8-3-1.2-4-1.7c-7.4-4.1-14.9-8.2-22.2-12.3c-3.4-1.9-4.2-4.2-2.8-6.9
					c1.4-2.6,4.1-3.4,7.3-1.6c7.8,4.2,15.5,8.5,23.2,12.9c2.1,1.2,3.7,3.1,2.5,5.5C442.1,334,440.3,335.2,439,336.5z"/>
				<path class="st0" d="M442.7,511c-0.6,0.7-1.4,2.3-2.8,3.1c-7.5,4.7-15.1,9.2-22.8,13.6c-3,1.8-5.6,1.2-7-1.3
					c-1.5-2.6-0.9-5.1,2-6.9c7.6-4.7,15.3-9.3,23.1-13.8C439,503.7,442.8,505.9,442.7,511z"/>
				<path class="st0" d="M776.1,318.7c-0.5,0.7-1.3,2.4-2.6,3.3c-7.7,4.8-15.5,9.4-23.4,14c-2.7,1.6-5.1,1-6.7-1.7
					c-1.6-2.8-0.7-5.1,1.9-6.7c7.8-4.7,15.5-9.4,23.4-13.9C772.2,311.6,775.9,313.8,776.1,318.7z"/>
				<path class="st0" d="M684.2,271.1c-4.5,0-7.3-3.4-5.8-6.3c4.3-8.6,9-17.1,13.7-25.5c1.3-2.3,3.7-2.5,5.9-1.2
					c2.1,1.2,3.4,3.1,2.3,5.6c-1.2,2.7-2.6,5.3-4,7.9c-2.9,5.4-5.7,10.8-8.8,16.1C686.6,269.2,684.9,270.3,684.2,271.1z"/>
				<path class="st0" d="M771.9,529.3c-1.7-0.7-2.8-1-3.7-1.5c-7.5-4.2-15-8.5-22.4-12.8c-3.2-1.9-3.7-4.9-1.6-7.4
					c1.5-1.8,3.5-2.5,5.7-1.2c8,4.5,16,9.1,24,13.7c2.1,1.2,2.9,3.4,1.9,5.5C774.9,527,773.1,528.1,771.9,529.3z"/>
				<path class="st0" d="M501.7,270.2c-0.7-0.5-2.3-1.4-3.1-2.7c-4.4-7.4-8.6-14.9-12.7-22.5c-1.7-3-0.9-5.6,1.7-7
					c2.6-1.5,5-0.7,6.8,2.4c4.2,7.4,8.4,14.8,12.5,22.2C508.8,266.4,506.7,270.2,501.7,270.2z"/>
				<path class="st0" d="M785.2,416.1c4.4,0,8.7-0.1,13.1,0c3.4,0.1,5.3,1.9,5.3,4.8c0,2.9-1.9,4.7-5.4,4.7c-8.8,0.1-17.7,0-26.5,0
					c-3,0-4.9-1.4-5.1-4.6c-0.1-3,1.7-4.8,5.1-4.9C776.3,416,780.8,416.1,785.2,416.1z"/>
			</g>
		</g>
		<circle class="st0" cx="592.8" cy="420.8" r="13.2"/>
		<g>
			<g>
				<line class="st1" x1="592.8" y1="420.8" x2="497.1" y2="412.3"/>
				<path class="st0" d="M592.8,424.8c-0.1,0-0.2,0-0.4,0l-95.7-8.6c-2.2-0.2-3.8-2.1-3.6-4.3c0.2-2.2,2.1-3.8,4.3-3.6l95.7,8.6
					c2.2,0.2,3.8,2.1,3.6,4.3C596.6,423.3,594.8,424.8,592.8,424.8z"/>
			</g>
		</g>
		<g>
			<g>
				<line class="st1" x1="592.8" y1="420.8" x2="733.8" y2="358.3"/>
				<path class="st0" d="M592.8,422.8c-0.8,0-1.5-0.4-1.8-1.2c-0.4-1,0-2.2,1-2.6L733,356.5c1-0.5,2.2,0,2.6,1s0,2.2-1,2.6
					l-141.1,62.5C593.3,422.8,593,422.8,592.8,422.8z"/>
			</g>
		</g>
	</g>
</g>
</svg>
