<?xml version="1.0" encoding="utf-8"?>
<!-- Generator: Adobe Illustrator 17.0.0, SVG Export Plug-In . SVG Version: 6.00 Build 0)  -->
<!DOCTYPE svg PUBLIC "-//W3C//DTD SVG 1.1//EN" "http://www.w3.org/Graphics/SVG/1.1/DTD/svg11.dtd">
<svg version="1.1" id="Layer_1" xmlns="http://www.w3.org/2000/svg" xmlns:xlink="http://www.w3.org/1999/xlink" x="0px" y="0px"
	 width="1190.55px" height="841.89px" viewBox="0 0 1190.55 841.89" enable-background="new 0 0 1190.55 841.89"
	 xml:space="preserve">
<g>
	<g>
		<g>
			<g>
				<path fill="#F5F6F6" d="M594.906,368.054c0.559,0.323,0.812,0.808,0.81,1.452c-0.007,2.091,0.016,4.182-0.02,6.272
					c-0.007,0.382-0.132,0.891-0.395,1.103c-0.288,0.232-0.872,0.357-1.192,0.218c-0.349-0.152-0.759-0.654-0.77-1.014
					c-0.069-2.295-0.068-4.594-0.002-6.889c0.011-0.387,0.445-0.762,0.683-1.142C594.315,368.054,594.611,368.054,594.906,368.054z"
					/>
				<path fill="#F5F6F6" d="M542.937,419.668c2.242-0.013,4.483-0.032,6.724-0.037c0.781-0.002,1.239,0.418,1.24,1.191
					c0.001,0.774-0.458,1.191-1.24,1.189c-2.242-0.006-4.483-0.024-6.724-0.037C542.937,421.206,542.937,420.437,542.937,419.668z"
					/>
				<path fill="#F5F6F6" d="M595.712,469.002c0,1.064,0.024,2.129-0.008,3.191c-0.028,0.933-0.495,1.415-1.254,1.386
					c-0.721-0.027-1.146-0.513-1.152-1.391c-0.013-2.157-0.014-4.315,0-6.472c0.006-0.904,0.403-1.347,1.155-1.369
					c0.786-0.024,1.223,0.424,1.25,1.375C595.736,466.814,595.712,467.908,595.712,469.002z"/>
				<path fill="#F5F6F6" d="M621.599,465.676c-0.328,0.314-0.627,0.825-1.019,0.91c-0.386,0.084-1.019-0.137-1.273-0.447
					c-0.517-0.629-0.856-1.405-1.262-2.125c-0.71-1.259-1.425-2.516-2.117-3.785c-0.475-0.872-0.326-1.508,0.395-1.892
					c0.672-0.357,1.222-0.141,1.713,0.722c1.05,1.846,2.088,3.699,3.12,5.556C621.312,464.895,621.406,465.207,621.599,465.676z"/>
				<path fill="#F5F6F6" d="M568.986,466.675c-1.255-0.012-1.781-0.959-1.225-1.894c1.145-1.923,2.342-3.815,3.518-5.719
					c0.031-0.05,0.065-0.098,0.102-0.144c0.464-0.569,1.035-0.673,1.644-0.293c0.631,0.393,0.749,0.975,0.366,1.602
					c-1.195,1.961-2.395,3.921-3.636,5.854C569.559,466.387,569.146,466.556,568.986,466.675z"/>
				<path fill="#F5F6F6" d="M556.054,399.736c-0.462-0.197-0.742-0.289-0.995-0.429c-1.858-1.021-3.715-2.044-5.562-3.084
					c-0.844-0.475-1.055-1.053-0.689-1.725c0.36-0.662,1.028-0.839,1.817-0.409c1.939,1.056,3.866,2.135,5.791,3.217
					c0.535,0.301,0.914,0.776,0.617,1.378C556.827,399.104,556.375,399.404,556.054,399.736z"/>
				<path fill="#F5F6F6" d="M556.988,443.362c-0.142,0.168-0.353,0.579-0.69,0.787c-1.879,1.165-3.781,2.294-5.691,3.408
					c-0.755,0.441-1.389,0.291-1.758-0.334c-0.383-0.648-0.234-1.265,0.512-1.722c1.911-1.169,3.831-2.327,5.774-3.442
					C556.063,441.527,557.004,442.094,556.988,443.362z"/>
				<path fill="#F5F6F6" d="M640.328,395.284c-0.135,0.174-0.324,0.608-0.656,0.814c-1.927,1.199-3.882,2.353-5.84,3.503
					c-0.666,0.391-1.265,0.259-1.664-0.422c-0.406-0.692-0.174-1.275,0.463-1.663c1.939-1.181,3.882-2.356,5.852-3.483
					C639.372,393.525,640.292,394.065,640.328,395.284z"/>
				<path fill="#F5F6F6" d="M617.363,383.383c-1.128-0.009-1.819-0.842-1.451-1.576c1.082-2.156,2.245-4.273,3.421-6.38
					c0.322-0.578,0.913-0.631,1.47-0.31c0.532,0.307,0.841,0.782,0.569,1.407c-0.293,0.672-0.645,1.321-0.99,1.969
					c-0.72,1.351-1.428,2.71-2.197,4.033C617.958,382.916,617.545,383.198,617.363,383.383z"/>
				<path fill="#F5F6F6" d="M639.292,447.927c-0.428-0.17-0.688-0.239-0.915-0.367c-1.873-1.061-3.748-2.119-5.603-3.21
					c-0.789-0.464-0.936-1.233-0.409-1.856c0.387-0.457,0.878-0.617,1.422-0.311c2.004,1.128,4.002,2.266,5.992,3.418
					c0.529,0.306,0.737,0.844,0.463,1.368C640.034,447.363,639.593,447.635,639.292,447.927z"/>
				<path fill="#F5F6F6" d="M571.725,383.174c-0.164-0.137-0.583-0.343-0.782-0.679c-1.095-1.856-2.15-3.736-3.187-5.625
					c-0.413-0.753-0.225-1.395,0.42-1.753c0.657-0.364,1.243-0.182,1.691,0.597c1.059,1.843,2.112,3.69,3.128,5.558
					C573.512,382.221,572.983,383.162,571.725,383.174z"/>
				<path fill="#F5F6F6" d="M642.622,419.626c1.09,0,2.18-0.018,3.269,0.006c0.861,0.019,1.336,0.471,1.331,1.197
					c-0.004,0.728-0.474,1.175-1.345,1.183c-2.208,0.019-4.417,0.009-6.626,0.003c-0.762-0.002-1.233-0.357-1.268-1.156
					c-0.033-0.759,0.415-1.207,1.281-1.227C640.383,419.605,641.503,419.626,642.622,419.626z"/>
			</g>
		</g>
		<circle fill="#F5F6F6" cx="594.503" cy="420.82" r="3.294"/>
		<g>
			<g>
				<line fill="#F5F6F6" x1="594.503" y1="420.82" x2="570.575" y2="418.676"/>
				<path fill="#F5F6F6" d="M594.503,421.82c-0.03,0-0.06-0.001-0.09-0.004l-23.927-2.145c-0.55-0.05-0.956-0.535-0.907-1.085
					c0.05-0.551,0.531-0.962,1.085-0.907l23.927,2.145c0.55,0.05,0.956,0.535,0.907,1.085
					C595.452,421.43,595.016,421.82,594.503,421.82z"/>
			</g>
		</g>
		<g>
			<g>
				<line fill="#F5F6F6" x1="594.503" y1="420.82" x2="629.767" y2="405.199"/>
				<path fill="#F5F6F6" d="M594.503,421.32c-0.192,0-0.375-0.111-0.458-0.298c-0.112-0.252,0.002-0.548,0.254-0.659l35.265-15.621
					c0.253-0.114,0.548,0.003,0.66,0.255s-0.002,0.548-0.254,0.659l-35.265,15.621C594.639,421.307,594.57,421.32,594.503,421.32z"
					/>
			</g>
		</g>
	</g>
</g>
</svg>
