<?xml version="1.0" encoding="utf-8"?>
<!-- Generator: Adobe Illustrator 17.0.0, SVG Export Plug-In . SVG Version: 6.00 Build 0)  -->
<!DOCTYPE svg PUBLIC "-//W3C//DTD SVG 1.1//EN" "http://www.w3.org/Graphics/SVG/1.1/DTD/svg11.dtd">
<svg version="1.1" id="Layer_1" xmlns="http://www.w3.org/2000/svg" xmlns:xlink="http://www.w3.org/1999/xlink" x="0px" y="0px"
	 width="1190.55px" height="841.89px" viewBox="0 0 1190.55 841.89" enable-background="new 0 0 1190.55 841.89"
	 xml:space="preserve">
<g>
	<g>
		<path fill="#F5F6F6" d="M632.526,398.278v-5.083l-0.738-0.285c-0.251-0.102-6.223-2.416-14.186-2.416
			c-8.527,0-15.889,2.603-21.861,7.725c-5.985-5.123-13.334-7.725-21.873-7.725c-7.962,0-13.937,2.315-14.186,2.416l-0.725,0.285
			v4.709c-2.418,0.452-3.921,1.266-3.921,2.579v48.507h35.723c1.236,1.114,3.055,1.803,5.07,1.803c2.015,0,3.83-0.689,5.057-1.803
			h34.833v-48.507C635.718,399.406,634.504,398.705,632.526,398.278L632.526,398.278z M595.352,445.171
			c-2.969-1.227-13.184-5.108-23.415-5.108c-4.041,0-7.622,0.613-10.68,1.84v-47.106c1.792-0.585,6.639-1.989,12.61-1.989
			c7.863,0,14.613,2.377,20.119,6.999v28.123l1.366-1.503V445.171z M630.209,441.916c-3.28-1.315-7.037-1.978-11.206-1.978
			c-10.23,0-19.958,3.919-22.877,5.209v-18.719l1.354,1.503v-28.123c5.509-4.622,12.258-6.999,20.121-6.999
			c5.96,0,10.831,1.404,12.608,1.989V441.916z M630.209,441.916"/>
	</g>
</g>
</svg>
