<?xml version="1.0" encoding="utf-8"?>
<!-- Generator: Adobe Illustrator 17.0.0, SVG Export Plug-In . SVG Version: 6.00 Build 0)  -->
<!DOCTYPE svg PUBLIC "-//W3C//DTD SVG 1.1//EN" "http://www.w3.org/Graphics/SVG/1.1/DTD/svg11.dtd">
<svg version="1.1" id="Layer_1" xmlns="http://www.w3.org/2000/svg" xmlns:xlink="http://www.w3.org/1999/xlink" x="0px" y="0px"
	 width="1190.55px" height="841.89px" viewBox="0 0 1190.55 841.89" enable-background="new 0 0 1190.55 841.89"
	 xml:space="preserve">
<g>
	<g>
		<g>
			<path fill="#F5F6F6" d="M642.168,427.31c-0.307,0.279-0.565,0.513-0.974,0.885c-0.126-0.174-0.273-0.377-0.44-0.608
				c-0.228,0.184-0.364,0.294-0.517,0.419c0.104,0.224,0.193,0.415,0.307,0.661c-0.319,0.236-0.621,0.459-0.951,0.704
				c-0.195-0.18-0.373-0.346-0.576-0.534c-0.147,0.103-0.273,0.191-0.424,0.296c0.066,0.217,0.128,0.42,0.211,0.69
				c-0.322,0.199-0.636,0.393-0.996,0.615c-0.168-0.179-0.312-0.334-0.49-0.525c-0.15,0.045-0.321,0.095-0.524,0.156
				c0.07,0.257,0.126,0.461,0.202,0.735c-0.356,0.158-0.696,0.309-1.092,0.485c-0.141-0.181-0.287-0.368-0.459-0.59
				c-0.14,0.036-0.286,0.072-0.466,0.118c0.005,0.274,0.009,0.516,0.014,0.809c-0.35,0.113-0.678,0.218-1.061,0.341
				c-0.135-0.219-0.259-0.421-0.4-0.65c-0.144,0.029-0.291,0.058-0.478,0.095c-0.033,0.242-0.066,0.481-0.101,0.739
				c-0.361,0.072-0.699,0.139-1.086,0.216c-0.117-0.211-0.232-0.421-0.359-0.649c-0.136,0.014-0.256,0.027-0.421,0.044
				c-0.047,0.248-0.093,0.488-0.149,0.788c-0.375,0.036-0.746,0.071-1.142,0.108c-0.077-0.263-0.137-0.466-0.211-0.718
				c-0.178,0.006-0.357,0.013-0.561,0.02c-0.045,0.242-0.083,0.452-0.133,0.719c-0.39,0.003-0.76,0.006-1.15,0.009
				c-0.094-0.286-0.17-0.517-0.249-0.757c-0.162-0.004-0.285-0.007-0.442-0.01c-0.099,0.227-0.197,0.451-0.309,0.707
				c-0.393-0.054-0.763-0.105-1.149-0.158c-0.017-0.269-0.03-0.48-0.046-0.734c-0.171-0.035-0.322-0.065-0.505-0.102
				c-0.101,0.2-0.198,0.392-0.341,0.673c-0.37-0.08-0.76-0.165-1.171-0.253c0.022-0.26,0.039-0.471,0.059-0.713
				c-0.155-0.059-0.298-0.115-0.487-0.187c-0.14,0.222-0.268,0.427-0.416,0.661c-0.353-0.118-0.711-0.238-1.121-0.376
				c0.028-0.238,0.053-0.448,0.084-0.703c-0.114-0.065-0.244-0.139-0.423-0.241c-0.175,0.2-0.332,0.38-0.515,0.59
				c-0.355-0.157-0.699-0.309-1.067-0.472c0.058-0.244,0.108-0.453,0.169-0.709c-0.142-0.09-0.294-0.187-0.465-0.295
				c-0.161,0.195-0.301,0.365-0.479,0.58c-0.314-0.182-0.637-0.368-1.006-0.582c0.062-0.244,0.12-0.473,0.187-0.735
				c-0.118-0.091-0.24-0.185-0.404-0.312c-0.192,0.169-0.371,0.328-0.574,0.507c-0.321-0.233-0.628-0.455-0.963-0.698
				c0.1-0.219,0.189-0.415,0.299-0.657c-0.116-0.115-0.244-0.242-0.382-0.38c-0.199,0.157-0.371,0.293-0.59,0.466
				c-0.296-0.271-0.598-0.547-0.97-0.888c0.173-0.171,0.33-0.326,0.518-0.512c-0.178-0.19-0.302-0.321-0.429-0.456
				c-0.207,0.131-0.39,0.247-0.616,0.39c-0.263-0.285-0.518-0.562-0.877-0.953c0.177-0.167,0.358-0.339,0.547-0.518
				c-0.125-0.168-0.217-0.291-0.329-0.442c-0.239,0.096-0.462,0.186-0.719,0.29c-0.234-0.333-0.449-0.639-0.676-0.964
				c0.169-0.183,0.316-0.341,0.484-0.523c-0.066-0.143-0.129-0.28-0.21-0.455c-0.268,0.069-0.499,0.129-0.756,0.195
				c-0.187-0.325-0.359-0.624-0.555-0.966c0.182-0.192,0.346-0.364,0.541-0.57c-0.065-0.131-0.132-0.266-0.216-0.436
				c-0.256,0.051-0.486,0.097-0.743,0.148c-0.16-0.367-0.31-0.711-0.47-1.077c0.218-0.17,0.411-0.322,0.618-0.484
				c-0.061-0.146-0.107-0.258-0.176-0.423c-0.241,0.003-0.48,0.005-0.752,0.009c-0.092-0.24-0.181-0.472-0.304-0.792
				c-1.629,0.252-3.22,0.658-4.87,1.105c-0.229,1.417-0.84,2.646-2.085,3.583c0.511,1.229,1.02,2.45,1.551,3.725
				c0.536,0.047,1.067,0.093,1.656,0.144c0.076,0.297,0.153,0.597,0.233,0.908c-1.347,1.01-2.805,1.309-4.451,0.927
				c-0.056-0.283-0.117-0.586-0.19-0.951c0.366-0.203,0.743-0.412,1.183-0.657c-0.574-1.099-1.128-2.161-1.719-3.291
				c-1.786,0.343-3.381-0.05-4.67-1.328c-1.294-1.284-1.713-2.866-1.353-4.74c-7.14-5.354-14.298-10.721-21.495-16.117
				c-0.082,0.186-0.134,0.263-0.15,0.347c-0.13,0.686-0.253,1.374-0.38,2.07c0.207,0.174,0.394,0.331,0.632,0.531
				c-0.14,0.837-0.281,1.679-0.426,2.546c0.169,0.144,0.333,0.285,0.519,0.445c-0.049,0.201-0.099,0.412-0.159,0.658
				c0.126,0.077,0.256,0.155,0.426,0.258c0.187-0.183,0.359-0.352,0.573-0.562c0.314,0.186,0.636,0.378,1.006,0.597
				c-0.087,0.241-0.16,0.441-0.256,0.707c0.123,0.094,0.262,0.2,0.437,0.334c0.19-0.187,0.362-0.355,0.552-0.542
				c0.295,0.21,0.579,0.412,0.898,0.639c-0.118,0.232-0.229,0.451-0.373,0.734c0.159,0.149,0.331,0.312,0.516,0.486
				c0.226-0.152,0.406-0.272,0.551-0.37c0.331,0.157,0.644,0.305,0.976,0.462c-0.186,0.395-0.302,0.643-0.427,0.908
				c0.119,0.142,0.217,0.258,0.355,0.422c0.213-0.175,0.397-0.325,0.646-0.529c0.254,0.275,0.506,0.548,0.807,0.874
				c-0.145,0.207-0.282,0.403-0.434,0.62c0.083,0.119,0.172,0.245,0.274,0.391c0.232-0.072,0.434-0.135,0.664-0.207
				c0.187,0.276,0.362,0.536,0.643,0.949c-0.157,0.126-0.353,0.282-0.572,0.458c0.189,0.208,0.309,0.34,0.445,0.489
				c0.23-0.078,0.434-0.146,0.698-0.235c0.179,0.317,0.362,0.64,0.568,1.004c-0.188,0.197-0.354,0.372-0.545,0.571
				c0.086,0.141,0.164,0.269,0.247,0.405c0.243-0.028,0.459-0.053,0.719-0.083c0.16,0.342,0.318,0.679,0.492,1.053
				c-0.241,0.166-0.438,0.301-0.666,0.458c0.084,0.165,0.155,0.301,0.238,0.465c0.226-0.033,0.436-0.063,0.715-0.103
				c0.104,0.365,0.206,0.723,0.319,1.115c-0.219,0.163-0.414,0.308-0.62,0.462c0.047,0.145,0.084,0.262,0.139,0.431
				c0.24,0.013,0.478,0.025,0.742,0.039c0.073,0.367,0.14,0.704,0.219,1.1c-0.192,0.11-0.401,0.231-0.635,0.366
				c0.016,0.151,0.032,0.302,0.05,0.479c0.236,0.049,0.444,0.092,0.654,0.136c0.072,0.359,0.139,0.698,0.217,1.089
				c-0.239,0.108-0.459,0.207-0.714,0.323c-0.015,0.125-0.034,0.274-0.058,0.465c0.27,0.073,0.507,0.136,0.778,0.209
				c-0.007,0.397-0.013,0.771-0.02,1.189c-0.23,0.033-0.437,0.062-0.693,0.099c-0.031,0.169-0.063,0.343-0.1,0.542
				c0.25,0.087,0.449,0.157,0.719,0.25c-0.036,0.382-0.072,0.751-0.11,1.157c-0.249,0.031-0.461,0.057-0.729,0.091
				c-0.029,0.156-0.061,0.327-0.095,0.51c0.237,0.11,0.432,0.2,0.661,0.306c-0.083,0.384-0.162,0.75-0.249,1.152
				c-0.252-0.004-0.466-0.007-0.74-0.011c-0.052,0.15-0.11,0.318-0.177,0.509c0.212,0.121,0.401,0.229,0.659,0.376
				c-0.122,0.377-0.245,0.756-0.374,1.153c-0.276-0.048-0.488-0.084-0.728-0.125c-0.069,0.138-0.137,0.276-0.229,0.461
				c0.207,0.16,0.398,0.309,0.623,0.483c-0.15,0.337-0.305,0.682-0.482,1.078c-0.25-0.054-0.482-0.105-0.745-0.162
				c-0.07,0.127-0.145,0.262-0.245,0.443c0.187,0.179,0.36,0.345,0.556,0.532c-0.207,0.342-0.404,0.666-0.617,1.018
				c-0.233-0.085-0.435-0.158-0.686-0.249c-0.095,0.134-0.198,0.279-0.319,0.449c0.165,0.182,0.307,0.338,0.463,0.511
				c-0.213,0.34-0.411,0.657-0.637,1.017c-0.256-0.124-0.472-0.229-0.714-0.346c-0.104,0.115-0.206,0.228-0.344,0.38
				c0.149,0.217,0.284,0.413,0.444,0.647c-0.265,0.284-0.52,0.558-0.792,0.851c-0.222-0.116-0.413-0.216-0.637-0.334
				c-0.109,0.083-0.229,0.175-0.389,0.297c0.124,0.237,0.233,0.447,0.359,0.688c-0.307,0.271-0.59,0.521-0.893,0.79
				c-0.189-0.153-0.357-0.288-0.564-0.455c-0.138,0.102-0.282,0.21-0.449,0.333c0.111,0.222,0.206,0.413,0.324,0.648
				c-0.3,0.219-0.604,0.441-0.942,0.688c-0.219-0.175-0.408-0.325-0.607-0.483c-0.136,0.089-0.266,0.173-0.421,0.274
				c0.075,0.234,0.14,0.435,0.226,0.701c-0.317,0.189-0.637,0.38-0.993,0.592c-0.172-0.172-0.323-0.322-0.52-0.519
				c-0.111,0.033-0.252,0.074-0.439,0.129c0.02,0.269,0.038,0.511,0.061,0.82c-0.347,0.143-0.691,0.285-1.059,0.437
				c-0.141-0.218-0.257-0.397-0.38-0.586c-0.172,0.034-0.321,0.064-0.527,0.105c0.016,0.259,0.031,0.496,0.051,0.803
				c-0.358,0.113-0.712,0.226-1.092,0.346c-0.161-0.245-0.294-0.449-0.425-0.649c-0.151,0.03-0.27,0.054-0.426,0.085
				c-0.017,0.227-0.034,0.44-0.055,0.713c-0.348,0.069-0.708,0.141-1.122,0.224c-0.093-0.163-0.198-0.348-0.338-0.595
				c-0.145,0.012-0.318,0.027-0.517,0.044c-0.02,0.255-0.037,0.469-0.059,0.756c-0.381,0.042-0.748,0.082-1.151,0.127
				c-0.109-0.271-0.199-0.495-0.303-0.755c-0.168,0.018-0.316,0.034-0.485,0.052c-0.059,0.245-0.109,0.456-0.171,0.712
				c-0.361,0.003-0.732,0.006-1.152,0.009c-0.051-0.255-0.097-0.486-0.15-0.754c-0.174-0.006-0.326-0.011-0.515-0.017
				c-0.094,0.241-0.181,0.461-0.275,0.702c-0.39-0.047-0.731-0.089-1.108-0.135c-0.051-0.257-0.098-0.492-0.15-0.754
				c-0.15-0.032-0.3-0.065-0.485-0.105c-0.111,0.245-0.211,0.467-0.32,0.708c-0.367-0.084-0.705-0.161-1.104-0.253
				c-0.015-0.243-0.03-0.477-0.047-0.754c-0.126-0.05-0.269-0.107-0.57-0.225c-0.086,0.227-0.175,0.46-0.275,0.723
				c-0.398-0.132-0.753-0.25-1.177-0.391c0.042-0.219,0.081-0.423,0.131-0.682c-0.141-0.073-0.295-0.154-0.478-0.249
				c-0.16,0.196-0.297,0.365-0.478,0.587c-0.324-0.142-0.666-0.291-1.069-0.468c0.05-0.239,0.098-0.469,0.157-0.754
				c-0.151-0.076-0.312-0.157-0.469-0.236c-0.173,0.183-0.322,0.34-0.515,0.545c-0.331-0.195-0.653-0.385-1.013-0.597
				c0.089-0.232,0.165-0.433,0.263-0.689c-0.126-0.098-0.266-0.206-0.429-0.332c-0.187,0.175-0.343,0.321-0.549,0.515
				c-0.301-0.213-0.604-0.427-0.944-0.668c0.096-0.249,0.181-0.472,0.279-0.726c-0.111-0.103-0.224-0.208-0.372-0.345
				c-0.215,0.151-0.415,0.292-0.639,0.449c-0.284-0.264-0.561-0.521-0.855-0.794c0.116-0.213,0.217-0.401,0.348-0.643
				c-0.115-0.126-0.234-0.256-0.364-0.398c-0.216,0.14-0.398,0.257-0.607,0.393c-0.26-0.286-0.516-0.566-0.869-0.955
				c0.174-0.155,0.362-0.321,0.558-0.495c-0.152-0.198-0.245-0.318-0.359-0.466c-0.209,0.089-0.403,0.171-0.676,0.287
				c-0.216-0.28-0.444-0.576-0.71-0.922c0.167-0.189,0.324-0.367,0.513-0.58c-0.067-0.118-0.142-0.252-0.249-0.442
				c-0.226,0.062-0.453,0.125-0.747,0.206c-0.192-0.336-0.376-0.657-0.576-1.008c0.186-0.175,0.341-0.32,0.521-0.489
				c-0.04-0.136-0.084-0.283-0.14-0.475c-0.256,0.051-0.487,0.097-0.777,0.155c-0.156-0.37-0.301-0.717-0.459-1.091
				c0.192-0.148,0.385-0.297,0.588-0.453c-0.039-0.154-0.069-0.274-0.11-0.44c-0.248-0.004-0.493-0.009-0.821-0.015
				c-0.105-0.332-0.218-0.688-0.344-1.085c0.215-0.119,0.401-0.223,0.638-0.354c-0.031-0.154-0.065-0.326-0.106-0.531
				c-0.215-0.016-0.429-0.032-0.691-0.052c-0.072-0.361-0.144-0.725-0.225-1.128c0.208-0.106,0.423-0.217,0.647-0.332
				c-0.032-0.159-0.055-0.278-0.09-0.454c-0.233-0.041-0.472-0.083-0.764-0.134c-0.031-0.395-0.06-0.766-0.091-1.16
				c0.262-0.079,0.464-0.14,0.714-0.215c-0.001-0.163-0.003-0.314-0.004-0.502c-0.252-0.061-0.482-0.117-0.74-0.179
				c-0.004-0.383-0.008-0.726-0.011-1.115c0.247-0.086,0.475-0.166,0.756-0.264c0.002-0.139,0.004-0.286,0.007-0.46
				c-0.227-0.091-0.427-0.172-0.684-0.275c0.037-0.362,0.074-0.733,0.117-1.162c0.243-0.016,0.451-0.029,0.72-0.046
				c0.043-0.152,0.092-0.323,0.149-0.524c-0.213-0.104-0.409-0.2-0.678-0.331c0.066-0.348,0.136-0.716,0.218-1.15
				c0.227,0.004,0.431,0.008,0.697,0.012c0.067-0.135,0.144-0.292,0.243-0.492c-0.232-0.128-0.42-0.231-0.671-0.368
				c0.107-0.34,0.219-0.694,0.349-1.107c0.255,0.011,0.49,0.021,0.758,0.033c0.068-0.14,0.135-0.278,0.229-0.471
				c-0.204-0.146-0.395-0.283-0.629-0.45c0.172-0.366,0.332-0.705,0.498-1.059c0.256,0.05,0.467,0.092,0.801,0.157
				c0.054-0.121,0.118-0.262,0.201-0.448c-0.191-0.168-0.371-0.327-0.58-0.51c0.197-0.341,0.387-0.669,0.599-1.034
				c0.215,0.071,0.419,0.139,0.669,0.223c0.106-0.122,0.224-0.258,0.361-0.416c-0.173-0.184-0.323-0.344-0.511-0.544
				c0.212-0.298,0.43-0.605,0.68-0.957c0.236,0.091,0.458,0.177,0.715,0.276c0.103-0.11,0.208-0.222,0.346-0.368
				c-0.15-0.186-0.284-0.353-0.473-0.589c0.252-0.284,0.52-0.587,0.88-0.993c0.161,0.168,0.31,0.324,0.49,0.512
				c0.175-0.136,0.315-0.245,0.48-0.373c-0.137-0.243-0.256-0.454-0.386-0.686c0.284-0.25,0.545-0.479,0.849-0.746
				c0.208,0.127,0.412,0.251,0.664,0.405c0.104-0.072,0.227-0.157,0.395-0.274c-0.092-0.236-0.179-0.459-0.286-0.731
				c0.307-0.225,0.609-0.448,0.938-0.69c0.187,0.171,0.347,0.318,0.546,0.5c0.138-0.08,0.29-0.167,0.457-0.263
				c-0.075-0.246-0.138-0.451-0.215-0.705c0.337-0.194,0.661-0.38,1.027-0.591c0.155,0.188,0.291,0.352,0.467,0.565
				c0.146-0.068,0.306-0.143,0.505-0.237c-0.058-0.224-0.111-0.428-0.18-0.691c0.329-0.155,0.669-0.315,1.052-0.496
				c0.16,0.18,0.299,0.338,0.474,0.534c0.121-0.017,0.271-0.039,0.468-0.067c0.001-0.261,0.002-0.5,0.003-0.775
				c0.369-0.123,0.725-0.242,1.108-0.37c0.11,0.212,0.209,0.403,0.325,0.625c0.16-0.021,0.31-0.041,0.51-0.068
				c0.029-0.261,0.055-0.498,0.085-0.767c0.371-0.074,0.735-0.147,1.128-0.225c0.098,0.219,0.184,0.414,0.294,0.658
				c0.152-0.021,0.297-0.041,0.467-0.064c0.037-0.246,0.069-0.458,0.109-0.719c0.381-0.04,0.753-0.078,1.196-0.124
				c0.053,0.212,0.103,0.414,0.165,0.664c0.166,0.004,0.345,0.008,0.55,0.012c0.064-0.241,0.119-0.446,0.191-0.717
				c0.381,0.01,0.753,0.02,1.151,0.031c0.068,0.241,0.127,0.447,0.194,0.682c0.151,0.034,0.3,0.069,0.481,0.11
				c0.089-0.26,0.17-0.495,0.258-0.749c0.393,0.048,0.768,0.094,1.179,0.145c0.018,0.229,0.035,0.438,0.055,0.692
				c0.143,0.052,0.283,0.103,0.471,0.171c0.131-0.241,0.245-0.452,0.369-0.679c0.217,0.019,0.435,0.038,0.745,0.065
				c0.15-0.677,0.298-1.346,0.448-2.022c0.316-0.082,0.583-0.152,0.904-0.236c0.753-4.253,1.506-8.511,2.251-12.719
				c-0.195-0.333-0.365-0.621-0.571-0.972c-1.404-0.295-2.864-0.609-4.329-0.902c-0.207-0.041-0.451-0.022-0.652,0.045
				c-0.953,0.316-1.878,0.314-2.787-0.2c-0.684,0.431-1.345,0.869-2.026,1.272c-0.508,0.3-0.617,0.26-1.13-0.234
				c-0.088-0.405,0.146-0.651,0.432-0.879c0.622-0.496,1.238-0.999,1.9-1.534c0.217-1.556,1.253-2.261,2.754-2.352
				c1.217-0.073,2.075,0.486,2.491,1.704c1.223,0.194,2.449,0.372,3.668,0.591c0.578,0.103,0.859-0.279,1.233-0.678
				c0.529,0.089,1.087,0.183,1.618,0.273c0.271,0.36,0.513,0.681,0.811,1.076c-0.18,0.896-0.374,1.857-0.563,2.799
				c-0.231,0.145-0.414,0.261-0.616,0.388c-0.113,0.65-0.227,1.298-0.355,2.033c9.167,0.72,18.227,1.431,27.385,2.15
				c0.073-0.365,0.138-0.692,0.202-1.01c-0.118-0.115-0.208-0.202-0.344-0.333c0.034-0.303,0.073-0.645,0.112-0.99
				c0.15-0.12,0.292-0.234,0.44-0.352c0.166-1.205,0.339-2.401,0.492-3.599c0.149-1.162,0.212-2.34,0.821-3.451
				c-0.928-0.316-1.775-0.2-2.613-0.091c-0.407,0.053-0.799,0.212-1.202,0.305c-0.914,0.211-1.534-0.078-2.059-0.952
				c-0.044-0.555,0.256-0.897,0.751-1.069c0.479-0.166,0.967-0.327,1.464-0.417c2.257-0.407,4.521-0.777,6.779-1.183
				c2.008-0.361,3.992-0.818,5.804-1.705c0.398,0.066,0.536,0.283,0.5,0.617c-0.024,0.221-0.053,0.443-0.11,0.657
				c-0.696,2.617-3.141,4.505-5.876,4.51c-0.37,0.777-1.025,1.04-1.951,0.816c-0.09,0.388-0.193,0.716-0.24,1.051
				c-0.194,1.386-0.378,2.774-0.551,4.163c-0.037,0.3-0.054,0.578,0.097,0.905c0.171,0.369,0.158,0.837-0.203,1.218
				c-0.162,0.171-0.184,0.473-0.211,0.55c2.815,1.966,5.503,3.843,8.215,5.738c0.278-0.245,0.484-0.426,0.712-0.627
				c0.185,0.088,0.379,0.18,0.612,0.291c0.113-0.109,0.221-0.214,0.37-0.357c-0.142-0.21-0.275-0.407-0.438-0.648
				c0.251-0.283,0.5-0.564,0.872-0.984c0.124,0.215,0.238,0.415,0.355,0.618c0.287-0.226,0.424-0.335,0.584-0.461
				c-0.12-0.225-0.221-0.413-0.357-0.668c0.266-0.247,0.537-0.498,0.916-0.85c0.144,0.191,0.278,0.369,0.396,0.525
				c0.251-0.136,0.382-0.207,0.547-0.296c-0.086-0.262-0.163-0.493-0.25-0.759c0.309-0.214,0.617-0.429,0.944-0.657
				c0.186,0.165,0.346,0.308,0.551,0.491c0.141-0.095,0.283-0.192,0.442-0.3c-0.081-0.243-0.149-0.444-0.224-0.67
				c0.346-0.2,0.675-0.389,1.033-0.596c0.171,0.192,0.335,0.377,0.52,0.585c0.146-0.095,0.274-0.177,0.413-0.267
				c-0.029-0.232-0.056-0.446-0.089-0.705c0.352-0.16,0.69-0.315,1.047-0.478c0.168,0.216,0.298,0.384,0.443,0.572
				c0.159-0.046,0.307-0.088,0.502-0.144c-0.046-0.23-0.087-0.436-0.135-0.68c0.38-0.141,0.732-0.272,1.139-0.424
				c0.146,0.199,0.288,0.393,0.447,0.609c0.133-0.027,0.277-0.055,0.453-0.09c0.003-0.238,0.005-0.451,0.008-0.703
				c0.383-0.076,0.746-0.149,1.15-0.229c0.096,0.193,0.191,0.384,0.31,0.624c0.166-0.021,0.34-0.043,0.54-0.068
				c0.021-0.249,0.038-0.463,0.059-0.714c0.394-0.03,0.766-0.059,1.177-0.091c0.083,0.214,0.16,0.412,0.26,0.67
				c0.128-0.003,0.275-0.005,0.458-0.009c0.078-0.222,0.15-0.424,0.252-0.711c0.37,0.006,0.768,0.012,1.19,0.019
				c0.018,0.24,0.033,0.424,0.051,0.66c0.16,0.04,0.335,0.084,0.565,0.142c0.083-0.263,0.155-0.489,0.24-0.756
				c0.401,0.05,0.77,0.097,1.174,0.147c0.027,0.248,0.049,0.46,0.077,0.711c0.133,0.042,0.277,0.087,0.475,0.149
				c0.122-0.239,0.231-0.453,0.365-0.715c0.368,0.086,0.731,0.171,1.128,0.263c0,0.249,0,0.463-0.001,0.734
				c0.148,0.051,0.314,0.107,0.499,0.171c0.13-0.217,0.24-0.402,0.38-0.638c0.368,0.11,0.724,0.216,1.129,0.337
				c-0.027,0.265-0.052,0.505-0.08,0.78c0.143,0.06,0.286,0.119,0.472,0.197c0.146-0.206,0.287-0.403,0.442-0.621
				c0.358,0.161,0.705,0.316,1.102,0.495c-0.067,0.257-0.128,0.487-0.194,0.74c0.151,0.081,0.286,0.153,0.452,0.242
				c0.169-0.177,0.316-0.331,0.521-0.545c0.331,0.193,0.677,0.394,1.042,0.606c-0.097,0.248-0.176,0.447-0.27,0.685
				c0.134,0.095,0.256,0.181,0.404,0.286c0.212-0.149,0.408-0.288,0.63-0.444c0.33,0.239,0.636,0.46,0.958,0.693
				c-0.133,0.237-0.238,0.423-0.371,0.661c0.124,0.105,0.237,0.201,0.384,0.324c0.221-0.128,0.43-0.248,0.681-0.394
				c0.278,0.257,0.552,0.51,0.844,0.779c-0.143,0.228-0.257,0.411-0.388,0.62c0.094,0.114,0.191,0.232,0.323,0.392
				c0.232-0.11,0.447-0.211,0.707-0.334c0.255,0.28,0.508,0.558,0.781,0.859c-0.163,0.217-0.306,0.408-0.471,0.629
				c0.135,0.141,0.239,0.25,0.361,0.377c0.222-0.1,0.414-0.186,0.661-0.297c0.218,0.31,0.432,0.616,0.672,0.959
				c-0.165,0.192-0.302,0.352-0.494,0.574c0.081,0.128,0.174,0.275,0.286,0.452c0.229-0.08,0.429-0.15,0.689-0.242
				c0.19,0.318,0.381,0.638,0.602,1.007c-0.166,0.161-0.317,0.307-0.496,0.481c0.025,0.126,0.054,0.273,0.093,0.467
				c0.263-0.012,0.506-0.023,0.832-0.037c0.135,0.323,0.277,0.665,0.432,1.038c-0.211,0.145-0.388,0.266-0.597,0.409
				c0.037,0.143,0.075,0.288,0.127,0.486c0.232-0.018,0.442-0.035,0.752-0.06c0.121,0.318,0.253,0.663,0.405,1.061
				c-0.224,0.159-0.42,0.299-0.652,0.464c0.025,0.126,0.054,0.272,0.091,0.455c0.219,0.014,0.432,0.027,0.7,0.044
				c0.071,0.356,0.143,0.718,0.226,1.136c-0.17,0.086-0.36,0.183-0.613,0.311c0.016,0.151,0.035,0.327,0.057,0.532
				c0.244,0.025,0.457,0.047,0.75,0.078c0.043,0.357,0.088,0.723,0.137,1.135c-0.263,0.107-0.485,0.198-0.753,0.308
				c0.011,0.153,0.022,0.301,0.035,0.473c0.246,0.063,0.456,0.117,0.727,0.187c0.002,0.352,0.005,0.721,0.008,1.141
				c-0.258,0.051-0.487,0.097-0.75,0.149c-0.008,0.175-0.015,0.327-0.024,0.525c0.24,0.093,0.46,0.178,0.704,0.272
				c-0.045,0.384-0.086,0.727-0.13,1.108c-0.253,0.05-0.486,0.097-0.757,0.151c-0.029,0.132-0.063,0.283-0.108,0.485
				c0.234,0.101,0.454,0.196,0.712,0.308c-0.088,0.388-0.17,0.752-0.265,1.173c-0.255-0.011-0.464-0.021-0.72-0.032
				c-0.056,0.124-0.12,0.263-0.204,0.449c0.219,0.154,0.415,0.293,0.668,0.471c-0.111,0.335-0.228,0.689-0.365,1.102
				c-0.238-0.031-0.469-0.062-0.735-0.096c-0.066,0.144-0.129,0.282-0.208,0.454c0.198,0.171,0.382,0.33,0.589,0.509
				c-0.165,0.356-0.323,0.7-0.495,1.072c-0.233-0.063-0.441-0.119-0.708-0.192c-0.082,0.146-0.17,0.302-0.269,0.476
				c0.184,0.166,0.342,0.308,0.551,0.496c-0.187,0.334-0.368,0.659-0.575,1.028c-0.252-0.084-0.478-0.16-0.739-0.247
				c-0.096,0.137-0.183,0.26-0.296,0.421c0.175,0.195,0.336,0.375,0.516,0.576c-0.223,0.307-0.427,0.587-0.667,0.916
				c-0.235-0.089-0.457-0.174-0.714-0.271c-0.094,0.091-0.205,0.2-0.358,0.348c0.148,0.213,0.284,0.409,0.445,0.641
				c-0.247,0.28-0.495,0.561-0.781,0.886c-0.204-0.111-0.388-0.212-0.633-0.346c-0.117,0.09-0.255,0.196-0.428,0.328
				C641.899,426.894,642.015,427.073,642.168,427.31z M567.428,426.121c-0.912,1.867-2.121,2.597-3.66,2.229
				c-1.373-0.328-2.358-1.591-2.267-3.038c0.107-1.701,1.278-2.717,3.149-2.9c0.329-0.386,0.658-0.817,1.035-1.203
				c0.442-0.453,0.652-0.975,0.758-1.598c0.288-1.693,0.64-3.375,0.962-5.061c0.267-1.398,0.529-2.797,0.791-4.188
				c-0.155-0.074-0.235-0.129-0.324-0.15c-0.247-0.06-0.496-0.116-0.747-0.157c-3.266-0.543-6.405-0.129-9.398,1.292
				c-6.983,3.317-10.906,11.661-7.815,19.778c2.883,7.569,11.845,12.48,20.733,8.678c8.905-3.809,12.145-14.638,6.925-22.786
				c-0.646-1.009-1.376-1.997-2.227-2.834c-0.806-0.793-1.817-1.378-2.748-2.041c-0.193-0.137-0.427-0.216-0.684-0.342
				c-0.058,0.289-0.104,0.506-0.146,0.723c-0.821,4.279-1.64,8.558-2.468,12.836c-0.063,0.326-0.186,0.641-0.292,0.996
				C568.411,426.266,567.914,426.192,567.428,426.121z M613.698,417.383c1.547,5.481,7.338,11.499,15.875,10.9
				c8.685-0.61,13.869-7.37,14.496-14.054c0.725-7.729-4.189-14.719-11.657-16.679c-7.01-1.841-13.812,1.758-16.172,5.699
				c3.474,2.368,6.942,4.733,10.398,7.089c1.788-0.908,3.259-0.719,4.226,0.528c0.89,1.147,0.814,2.807-0.176,3.864
				c-1.132,1.208-2.6,1.183-4.57-0.096C622.019,415.54,617.895,416.453,613.698,417.383z M577.448,399.82
				c6.323,5.013,12.513,10.186,18.865,15.157c0.055-0.042,0.11-0.083,0.165-0.125c-0.381-0.859-0.762-1.719-1.129-2.545
				c-0.52-0.054-0.953-0.098-1.425-0.147c-0.045-0.362-0.083-0.662-0.118-0.941c1.283-0.533,2.466-1.214,3.855-0.591
				c0.076,0.261,0.144,0.497,0.219,0.754c-0.314,0.186-0.581,0.344-0.918,0.543c0.399,0.753,0.779,1.471,1.165,2.2
				c0.307-0.061,0.548-0.109,0.809-0.161c0.217-1.45,0.448-2.879,0.639-4.314c0.128-0.965,0.182-1.94,0.299-2.907
				c0.301-2.492,0.62-4.981,0.927-7.472c0.03-0.246,0.031-0.495,0.049-0.823c-7.978-0.344-15.892-0.675-23.876-0.997
				C577.143,398.29,577.285,399.002,577.448,399.82z M604.027,398.17c-0.818,5.55-1.611,10.933-2.408,16.345
				c1.239,0.586,2.002,1.544,2.582,2.701c1.794-0.599,3.637-0.668,5.292-1.508c-0.01-0.175-0.018-0.325-0.025-0.453
				c-0.293-0.09-0.524-0.162-0.76-0.235c-0.043-0.389-0.08-0.732-0.122-1.115c0.24-0.061,0.443-0.113,0.685-0.174
				c0.01-0.181,0.019-0.359,0.028-0.527c-0.278-0.073-0.509-0.133-0.776-0.202c0.025-0.396,0.046-0.737,0.067-1.07
				c0.36-0.152,0.862-0.121,0.705-0.73c-0.198-0.123-0.408-0.255-0.649-0.405c0.038-0.354,0.075-0.694,0.113-1.049
				c0.275-0.024,0.512-0.045,0.708-0.062c0.367-0.576-0.369-0.622-0.378-1.094c0.039-0.209,0.095-0.516,0.152-0.823
				c0.242,0.011,0.445,0.021,0.693,0.032c0.045-0.25,0.081-0.449,0.113-0.624c-0.231-0.116-0.396-0.199-0.555-0.279
				c0.085-0.376,0.161-0.711,0.247-1.089c0.314,0.038,0.584,0.07,0.899,0.108c0.053-0.246,0.097-0.451,0.137-0.64
				c-0.188-0.182-0.338-0.328-0.483-0.468c0.14-0.36,0.265-0.68,0.389-0.996c0.255,0.045,0.464,0.082,0.704,0.124
				c0.077-0.161,0.142-0.294,0.208-0.432c-0.333-0.346-0.59-0.723-0.942-0.959C608.514,401.108,606.355,399.702,604.027,398.17z
				 M625.343,412.48c0.011-0.066,0.023-0.132,0.034-0.199c-3.508-2.324-7.016-4.649-10.582-7.012
				c-1.664,3.157-2.249,6.369-1.664,9.898C617.247,414.262,621.295,413.371,625.343,412.48z"/>
		</g>
	</g>
</g>
<path fill="#F5F6F6" d="M518.666,453.357c0,0,19.231,0.644,21.657-0.106s6.176-3.25,9.926-4.5s7.5-2,10-2s20-0.25,21,0
	s9.672,2.25,11.086,2c1.414-0.25,16.414-10.006,19.664-11.378c3.25-1.372,29.5-9.622,31-9.872s11-1,14.75-3
	s8.028-10.54,11.25-12.436c2.656-1.564,3.844-2.564,3.844-2.564l-8.51,20l-55.667,23.167l-70,8.333L521,457.667L518.666,453.357z"/>
</svg>
