<?xml version="1.0" encoding="utf-8"?>
<!-- Generator: Adobe Illustrator 17.0.0, SVG Export Plug-In . SVG Version: 6.00 Build 0)  -->
<!DOCTYPE svg PUBLIC "-//W3C//DTD SVG 1.1//EN" "http://www.w3.org/Graphics/SVG/1.1/DTD/svg11.dtd">
<svg version="1.1" id="Layer_1" xmlns="http://www.w3.org/2000/svg" xmlns:xlink="http://www.w3.org/1999/xlink" x="0px" y="0px"
	 width="1190.55px" height="841.89px" viewBox="0 0 1190.55 841.89" enable-background="new 0 0 1190.55 841.89"
	 xml:space="preserve">
<g>
	<path fill="#F5F6F6" d="M553.563,442.621c-5.953-0.093-10.758-4.831-10.667-10.641c0.532-6.448,4.184-10.624,9.922-10.534
		c3.729,0.058,6.69,3.404,6.772,7.351c-0.013,0.86-0.669,1.496-1.53,1.482c-0.86-0.013-1.496-0.669-1.482-1.529
		c-0.106-2.441-1.871-4.262-3.736-4.291c-3.945-0.062-6.578,3.197-6.934,7.568c-0.068,4.375,3.542,7.517,7.702,7.582
		c5.81,0.091,10.029-3.646,10.265-9.597c-0.022-3.157-1.066-5.254-4.763-11.983c-0.51,0.494-1.021,1.059-1.461,1.627
		c-0.292,0.354-0.726,0.562-1.156,0.555c-0.358-0.006-0.788-0.084-1.07-0.375c-0.354-0.293-0.49-0.797-0.483-1.228
		c0.004-0.286,0.154-0.642,0.373-0.926c0.877-0.991,1.606-1.768,2.48-2.615c-0.622-1.517-1.028-3.101-1.002-4.751
		c0.058-3.73,2.403-6.85,5.343-6.804c2.08,0.033,3.273,1.701,3.384,3.783c-0.045,2.87-1.887,5.997-4.15,8.473
		c3.622,6.944,5.519,9.484,5.515,14.362C566.622,437.876,560.807,442.735,553.563,442.621z M562.437,407.248
		c0.016-1.004-0.777-0.8-1.505-0.095c-0.874,0.847-1.109,2.135-1.125,3.139c-0.012,0.789,0.12,1.508,0.323,2.301
		C561.302,411.034,562.412,408.826,562.437,407.248z"/>
	<path fill="#F5F6F6" d="M619.063,428.794c-2.748,5.984-6.83,14.744-13.214,14.644c-3.514-0.055-5.197-2.592-5.142-6.107
		c0.102-6.527,5.835-15.333,5.927-21.214c0.032-2.079-0.802-3.742-3.672-3.787c-4.159-0.065-9.9,9.243-12.072,15.019
		c-0.15,0.429-5.175,14.411-5.101,14.269c-0.226,0.642-0.805,0.992-1.45,0.982c-1.076-0.017-1.776-1.104-1.403-2.03
		c0.075-0.215,5.028-14.198,5.102-14.34c1.575-4.352,2.701-7.563,2.74-10.073c0.041-2.654-0.942-4.032-3.523-4.072
		c-2.009-0.031-4.196,2.23-6.322,5.137c-1.321,1.917-5.748,9.739-6.196,10.88l-5.093,13.767c-0.301,0.856-1.167,1.201-1.952,0.974
		c-0.785-0.3-1.201-1.167-0.902-1.951c3.819-10.271,7.71-20.541,11.53-30.812c0.225-0.642,0.804-0.992,1.45-0.982
		c1.076,0.017,1.776,1.104,1.403,2.03c-0.297,0.641-0.521,1.212-0.747,1.926c2.118-2.406,4.439-4.02,6.877-3.982
		c4.303,0.067,6.555,2.9,6.495,6.701c2.132-3.267,5.841-6.509,9.212-6.456c5.165,0.081,6.696,3.046,6.637,6.847
		c-0.108,6.885-5.76,15.048-5.856,21.215c-0.032,2.08,0.599,3.023,2.105,3.047c3.514,0.055,6.45-4.132,10.464-13.108
		c0.224-0.571,0.875-0.919,1.449-0.91c0.717,0.011,1.495,0.74,1.483,1.53C619.288,428.153,619.214,428.294,619.063,428.794z"/>
	<path fill="#F5F6F6" d="M611.876,443.461c-0.784-0.299-1.201-1.167-0.902-1.951c12.499-33.165,15.42-41.081,16.02-42.722
		c0.224-0.571,0.804-0.92,1.378-0.911c1.148,0.018,1.847,1.105,1.475,2.031c-6.514,17.474-11.009,29.672-16.018,42.578
		C613.53,443.2,612.662,443.688,611.876,443.461z M647.623,428.38c-0.003,0.216-0.078,0.43-0.153,0.643
		c-3.563,7.621-7.48,14.949-13.432,14.856c-3.3-0.052-5.265-2.809-5.222-5.534c0.025-1.578,0.265-3.152,0.505-4.799
		c0.238-1.43,0.476-2.933,0.424-4.225c-0.042-1.867-0.666-3.239-3.105-3.277c-2.08-0.033-3.189,2.102-4.552,2.081
		c-1.578-0.025-1.912-1.609-0.82-2.667c0.947-0.918,7.636-6.624,17.313-15.226c0.436-0.352,0.651-0.348,1.01-0.343
		c1.076,0.017,1.563,0.957,1.554,1.531c-0.007,0.431-0.227,0.786-0.519,1.069l-12.148,10.714c3.362,0.627,4.256,3.08,4.28,6.166
		c-0.026,1.65-0.901,7.159-0.926,8.809c-0.02,1.291,0.747,2.667,2.254,2.691c4.231,0.066,7.785-6.981,10.607-13.106
		c0.296-0.57,0.804-0.92,1.378-0.911c0.215,0.003,0.429,0.078,0.643,0.154C647.282,427.227,647.632,427.807,647.623,428.38z"/>
</g>
</svg>
