<?xml version="1.0" encoding="utf-8"?>
<!-- Generator: Adobe Illustrator 17.0.0, SVG Export Plug-In . SVG Version: 6.00 Build 0)  -->
<!DOCTYPE svg PUBLIC "-//W3C//DTD SVG 1.1//EN" "http://www.w3.org/Graphics/SVG/1.1/DTD/svg11.dtd">
<svg version="1.1" id="Layer_1" xmlns="http://www.w3.org/2000/svg" xmlns:xlink="http://www.w3.org/1999/xlink" x="0px" y="0px"
	 width="1190.55px" height="841.89px" viewBox="0 0 1190.55 841.89" enable-background="new 0 0 1190.55 841.89"
	 xml:space="preserve">
<path fill="#F5F6F6" d="M580.692,436.979c-9.437-1.287-14.544-6.035-16.715-13.853c-3.161-11.385,3.962-22.121,15.791-24.045
	c3.26-0.53,6.486-0.464,9.656,0.513c7.585,2.338,11.922,8.877,11.147,16.802c-0.147,1.5-0.379,2.991-0.592,4.64
	c0.986-0.076,1.961-0.152,3.071-0.238c-0.208-2.353-0.437-4.653-0.608-6.957c-0.315-4.248-0.717-8.496-0.833-12.75
	c-0.046-1.69,0.431-3.442,0.943-5.081c0.295-0.942,1.044-1.802,1.756-2.538c1.053-1.089,1.198-1.483,0.481-2.828
	c-1.554-2.914-5.761-3.047-8.054-0.25c-0.218,0.266-0.401,0.562-0.661,0.929c-2.394-1.873-3.579-4.357-3.74-7.297
	c-0.319-5.855,4.174-11.209,10.022-11.862c1.822-0.204,3.738-0.218,5.534,0.107c7.583,1.37,10.243,9.761,7.819,15.499
	c-0.741,1.755-1.9,3.333-2.834,4.936c2.34,1.472,4.842,3.045,7.609,4.785c-1.57,1.884-2.941,3.529-4.256,5.107
	c0.892,1.233,1.877,2.464,2.711,3.791c0.533,0.848,0.48,1.935-0.257,2.581c-0.564,0.495-1.484,0.679-2.275,0.781
	c-0.404,0.052-0.87-0.379-1.436-0.653c-0.212,3.906-0.422,7.752-0.633,11.643c1.281,0.176,2.477,0.266,3.639,0.512
	c7.822,1.652,11.616,8.771,8.635,16.246c-1.595,4.002-4.143,7.427-6.845,10.728c-1.791,2.187-3.723,4.259-5.533,6.432
	c-0.357,0.428-0.599,1.077-0.622,1.636c-0.077,1.818-0.078,3.644,0.007,5.461c0.022,0.477,0.348,1.089,0.732,1.373
	c2.105,1.562,4.034,3.276,5.319,5.598c0.2,0.36,0.169,0.848,0.244,1.277c-0.403,0.026-0.814,0.117-1.208,0.067
	c-6.609-0.828-13.215-0.79-19.822,0.027c-0.356,0.044-0.73-0.061-1.096-0.097c0.059-0.393,0.015-0.841,0.193-1.169
	c1.269-2.332,3.138-4.122,5.316-5.584c0.66-0.443,0.888-0.919,0.863-1.696c-0.064-2.051,0.488-4.309-0.204-6.099
	c-0.673-1.742-2.639-2.96-3.94-4.491c-2.329-2.742-4.686-5.472-6.841-8.349c-1.87-2.496-3.298-5.314-3.444-8.49
	c-0.089-1.933,0.217-3.922,0.633-5.824c0.197-0.899,0.054-1.323-0.588-1.817c-3.661-2.817-8.777-0.852-10.005,3.863
	C579.183,432.612,579.438,434.79,580.692,436.979z M616.519,405.59c-0.078-0.08-0.157-0.159-0.235-0.239l0.006,0
	c-0.29-0.386-0.581-0.773-0.871-1.159c-0.134,0.066-0.268,0.133-0.402,0.199c0.178,0.646,0.357,1.292,0.535,1.938
	c-0.001,0.067,0.007,0.133,0.023,0.198c0.074,0.237,0.147,0.474,0.221,0.711l-0.003-0.004c0.145,0.242,0.291,0.484,0.436,0.726
	l0.015,0.005c0.318,0.089,0.734,0.343,0.931,0.226c0.259-0.153,0.522-0.633,0.466-0.908c-0.088-0.432-0.44-0.811-0.68-1.213l0,0
	c-0.073-0.083-0.146-0.166-0.22-0.249l0.004,0.004c-0.078-0.08-0.155-0.16-0.233-0.241L616.519,405.59z M577.42,433.917
	c0-1.028-0.071-1.956,0.012-2.871c0.397-4.381,3.279-7.902,8.279-8.053c2.037-0.062,3.811,0.525,5.406,1.726
	c0.638,0.48,1.054,0.372,1.703-0.113c1.098-0.823,2.319-1.523,3.575-2.08c0.827-0.366,1.307-0.788,1.528-1.679
	c0.67-2.698,0.864-5.399,0.438-8.156c-0.66-4.268-2.633-7.597-6.533-9.701c-3.471-1.873-7.131-2.299-10.99-1.857
	c-8.687,0.996-16.111,7.961-15.299,17.922c0.35,4.29,1.805,8.033,4.867,11.095C572.325,432.07,574.538,433.464,577.42,433.917z
	 M609.106,391.873c1.492,0.544,2.309-0.49,3.122-1.587c1.177-1.588,1.818-3.374,2.209-5.298c0.7-3.442-0.803-7.307-3.693-9.263
	c-4.166-2.82-10.229-2.195-13.747,1.418c-2.421,2.486-3.124,7.042-1.625,10.186c0.386,0.809,0.748,0.925,1.477,0.384
	c0.549-0.408,1.196-0.73,1.848-0.944c4.093-1.345,7.471,0.539,8.558,4.699c0.056,0.215,0.438,0.432,0.702,0.485
	C608.284,392.017,608.645,391.913,609.106,391.873z M608.755,431.61c-0.221-0.268-0.392-0.465-0.552-0.672
	c-1.51-1.95-3.824-2.339-5.718-1.561c-1.921,0.789-2.812,2.852-2.302,5.275c1.015,4.816,4.348,8.17,7.487,11.631
	c0.803,0.885,1.624,0.747,2.332-0.158c1.998-2.553,4.158-5.002,5.906-7.717c0.894-1.388,1.275-3.228,1.471-4.912
	c0.24-2.064-0.917-3.737-2.696-4.247c-1.899-0.544-3.832-0.24-5.241,1.504C609.228,431.019,609.015,431.285,608.755,431.61z
	 M608.898,395.269c-1.641,0.019-2.9,1.308-2.896,2.965c0.004,1.646,1.287,2.945,2.915,2.952c1.681,0.007,2.987-1.33,2.958-3.029
	C611.848,396.517,610.542,395.251,608.898,395.269z M614.361,395.409c0.362,1.949,0.68,3.661,1.037,5.58
	c0.986-1.032,1.895-1.982,2.965-3.102C616.926,396.996,615.681,396.225,614.361,395.409z M607.278,408.478
	c0.11,0.041,0.22,0.081,0.331,0.122c0.766-0.962,1.561-1.902,2.288-2.893c0.466-0.634,0.533-1.357-0.281-1.761
	c-0.829-0.412-1.348,0.108-1.544,0.862C607.756,406.018,607.537,407.253,607.278,408.478z"/>
<path fill="#4E4E4E" d="M577.42,433.917c-2.882-0.452-5.095-1.847-7.015-3.767c-3.062-3.062-4.518-6.805-4.867-11.095
	c-0.812-9.961,6.613-16.926,15.299-17.922c3.859-0.442,7.519-0.016,10.99,1.857c3.899,2.104,5.873,5.433,6.533,9.701
	c0.426,2.757,0.232,5.459-0.438,8.156c-0.221,0.89-0.701,1.312-1.528,1.679c-1.256,0.556-2.476,1.257-3.575,2.08
	c-0.649,0.486-1.065,0.594-1.703,0.113c-1.595-1.201-3.369-1.787-5.406-1.726c-5,0.151-7.882,3.673-8.279,8.053
	C577.349,431.96,577.42,432.889,577.42,433.917z M570.435,425.36c0.772-0.06,1.355-0.525,1.393-1.425
	c0.038-0.907-0.514-1.439-1.404-1.533c-0.773-0.081-1.499,0.626-1.536,1.42C568.85,424.614,569.509,425.324,570.435,425.36z
	 M584.516,404.703c-0.081-0.843-0.532-1.416-1.454-1.419c-0.907-0.003-1.435,0.509-1.454,1.435
	c-0.019,0.945,0.554,1.411,1.426,1.485C583.818,406.27,584.509,405.545,584.516,404.703z M569.009,420.244
	c0.926-0.002,1.668-0.698,1.614-1.473c-0.062-0.888-0.572-1.428-1.479-1.478c-0.79-0.043-1.491,0.672-1.462,1.476
	C567.715,419.689,568.258,420.147,569.009,420.244z M588.485,404.408c-0.778,0.162-1.334,0.598-1.296,1.541
	c0.038,0.941,0.609,1.423,1.495,1.392c0.896-0.031,1.422-0.587,1.386-1.508C590.034,404.912,589.465,404.474,588.485,404.408z
	 M592.676,410.986c0.926-0.029,1.559-0.684,1.505-1.507c-0.061-0.925-0.618-1.387-1.511-1.404c-0.808-0.016-1.496,0.709-1.417,1.507
	C591.341,410.465,591.845,410.974,592.676,410.986z M594.608,419.661c-0.145-0.749-0.581-1.324-1.522-1.29
	c-0.932,0.034-1.435,0.606-1.414,1.491c0.021,0.9,0.6,1.401,1.505,1.416C593.981,421.292,594.641,420.565,594.608,419.661z
	 M572.597,410.392c0.828,0.002,1.58-0.705,1.527-1.481c-0.06-0.884-0.554-1.454-1.478-1.451c-0.918,0.002-1.447,0.547-1.458,1.451
	C571.177,409.837,571.768,410.282,572.597,410.392z M577.434,407.284c0.868-0.09,1.41-0.554,1.398-1.477
	c-0.013-0.923-0.563-1.424-1.466-1.418c-0.918,0.006-1.449,0.571-1.434,1.46C575.946,406.733,576.481,407.246,577.434,407.284z
	 M569.897,412.043c-0.909,0.033-1.478,0.489-1.507,1.401c-0.028,0.901,0.474,1.453,1.398,1.492c0.933,0.039,1.476-0.502,1.512-1.383
	C571.338,412.664,570.815,412.131,569.897,412.043z M574.937,428.213c-0.039-0.932-0.493-1.498-1.402-1.525
	c-0.896-0.027-1.461,0.468-1.486,1.39c-0.025,0.905,0.454,1.453,1.38,1.488C574.357,429.602,574.821,429.073,574.937,428.213z
	 M595.617,414.756c-0.047-0.916-0.469-1.482-1.397-1.515c-0.92-0.033-1.452,0.469-1.49,1.376c-0.037,0.906,0.442,1.454,1.37,1.487
	C595.019,416.135,595.505,415.632,595.617,414.756z"/>
<path fill="#4E4E4E" d="M609.106,391.873c-0.461,0.041-0.822,0.144-1.148,0.078c-0.263-0.053-0.645-0.27-0.702-0.485
	c-1.087-4.16-4.465-6.044-8.558-4.699c-0.652,0.214-1.299,0.537-1.848,0.944c-0.729,0.541-1.091,0.425-1.477-0.384
	c-1.499-3.144-0.796-7.699,1.625-10.186c3.518-3.613,9.581-4.238,13.747-1.418c2.89,1.956,4.392,5.822,3.693,9.263
	c-0.391,1.924-1.032,3.71-2.209,5.298C611.415,391.383,610.598,392.417,609.106,391.873z"/>
<path fill="#4E4E4E" d="M608.755,431.61c0.26-0.324,0.473-0.591,0.687-0.856c1.409-1.744,3.342-2.048,5.241-1.504
	c1.779,0.51,2.936,2.183,2.696,4.247c-0.196,1.684-0.577,3.524-1.471,4.912c-1.748,2.714-3.908,5.164-5.906,7.717
	c-0.708,0.905-1.529,1.043-2.332,0.158c-3.138-3.461-6.472-6.815-7.487-11.631c-0.511-2.423,0.38-4.486,2.302-5.275
	c1.894-0.778,4.207-0.39,5.718,1.561C608.362,431.144,608.534,431.342,608.755,431.61z"/>
<path fill="#4E4E4E" d="M614.361,395.409c1.319,0.817,2.565,1.587,4.003,2.477c-1.07,1.12-1.979,2.071-2.965,3.102
	C615.042,399.069,614.723,397.357,614.361,395.409z"/>
<path fill="#4E4E4E" d="M607.278,408.478c0.26-1.225,0.479-2.46,0.794-3.67c0.196-0.754,0.716-1.274,1.544-0.862
	c0.814,0.405,0.746,1.127,0.281,1.761c-0.727,0.991-1.522,1.931-2.288,2.893C607.498,408.559,607.388,408.518,607.278,408.478z"/>
<path fill="#4E4E4E" d="M615.576,406.527c-0.016-0.065-0.024-0.131-0.023-0.198c0.022-0.328,0.044-0.657,0.068-1.018
	c0.244,0.015,0.456,0.027,0.669,0.04l-0.006,0c0.078,0.08,0.157,0.159,0.235,0.239l-0.005-0.004c0.078,0.08,0.155,0.16,0.233,0.24
	l-0.004-0.004c0.073,0.083,0.146,0.166,0.22,0.249l0,0c-0.146,0.667,1.088,1.856-0.717,1.894l-0.015-0.005
	c-0.145-0.242-0.291-0.484-0.437-0.726l0.003,0.004C615.723,407.001,615.649,406.764,615.576,406.527z"/>
<path fill="#4E4E4E" d="M616.245,407.965c1.806-0.038,0.571-1.228,0.717-1.894c0.24,0.401,0.592,0.78,0.68,1.213
	c0.056,0.275-0.207,0.755-0.466,0.908C616.979,408.308,616.564,408.054,616.245,407.965z"/>
<path fill="#4E4E4E" d="M616.29,405.351c-0.213-0.013-0.426-0.025-0.669-0.04c-0.024,0.361-0.046,0.69-0.068,1.018
	c-0.178-0.646-0.357-1.292-0.535-1.938c0.134-0.066,0.268-0.133,0.402-0.199C615.71,404.578,616,404.965,616.29,405.351z"/>
<path fill="#931F34" d="M615.794,407.234c0.146,0.242,0.291,0.484,0.437,0.726C616.085,407.718,615.939,407.476,615.794,407.234z"/>
<path fill="#931F34" d="M615.576,406.527c0.074,0.237,0.148,0.474,0.221,0.711C615.723,407.001,615.649,406.764,615.576,406.527z"/>
<path fill="#931F34" d="M616.963,406.071c-0.073-0.083-0.146-0.166-0.22-0.249C616.817,405.905,616.89,405.988,616.963,406.071z"/>
<path fill="#931F34" d="M616.748,405.826c-0.078-0.08-0.156-0.16-0.233-0.24C616.592,405.665,616.67,405.746,616.748,405.826z"/>
<path fill="#931F34" d="M616.519,405.59c-0.078-0.08-0.157-0.159-0.235-0.239C616.362,405.43,616.441,405.51,616.519,405.59z"/>
<path fill="#FEECED" d="M570.435,425.36c-0.926-0.036-1.584-0.746-1.547-1.537c0.037-0.794,0.763-1.501,1.536-1.42
	c0.891,0.094,1.443,0.626,1.404,1.533C571.789,424.835,571.207,425.3,570.435,425.36z"/>
<path fill="#FEEDEF" d="M584.516,404.703c-0.007,0.843-0.699,1.567-1.483,1.501c-0.872-0.074-1.445-0.54-1.426-1.485
	c0.019-0.926,0.547-1.437,1.454-1.435C583.984,403.287,584.435,403.86,584.516,404.703z"/>
<path fill="#FEEDEE" d="M569.009,420.244c-0.751-0.098-1.294-0.556-1.327-1.475c-0.029-0.804,0.672-1.52,1.462-1.476
	c0.906,0.05,1.417,0.59,1.479,1.478C570.677,419.546,569.935,420.243,569.009,420.244z"/>
<path fill="#FEEDEF" d="M588.485,404.408c0.98,0.066,1.549,0.505,1.585,1.425c0.036,0.921-0.491,1.477-1.386,1.508
	c-0.886,0.031-1.457-0.451-1.495-1.392C587.152,405.005,587.707,404.569,588.485,404.408z"/>
<path fill="#FEEDEE" d="M592.676,410.986c-0.831-0.012-1.335-0.521-1.423-1.404c-0.079-0.798,0.609-1.523,1.417-1.507
	c0.893,0.017,1.45,0.479,1.511,1.404C594.235,410.302,593.602,410.957,592.676,410.986z"/>
<path fill="#FEEDEE" d="M594.608,419.661c0.033,0.905-0.627,1.631-1.431,1.617c-0.905-0.016-1.484-0.517-1.505-1.416
	c-0.021-0.885,0.483-1.457,1.414-1.491C594.028,418.337,594.463,418.912,594.608,419.661z"/>
<path fill="#FDEBEC" d="M572.597,410.392c-0.829-0.11-1.421-0.555-1.409-1.481c0.012-0.904,0.54-1.448,1.458-1.451
	c0.924-0.002,1.418,0.568,1.478,1.451C574.177,409.687,573.425,410.394,572.597,410.392z"/>
<path fill="#FCEEF0" d="M577.434,407.284c-0.953-0.038-1.488-0.551-1.503-1.435c-0.015-0.89,0.516-1.454,1.434-1.46
	c0.903-0.006,1.454,0.495,1.466,1.418C578.845,406.73,578.302,407.194,577.434,407.284z"/>
<path fill="#FEEDEE" d="M569.897,412.043c0.917,0.088,1.44,0.621,1.404,1.509c-0.036,0.881-0.579,1.422-1.512,1.383
	c-0.925-0.039-1.427-0.591-1.398-1.492C568.419,412.532,568.988,412.076,569.897,412.043z"/>
<path fill="#FEF0F1" d="M574.937,428.213c-0.116,0.859-0.58,1.389-1.509,1.353c-0.926-0.035-1.405-0.583-1.38-1.488
	c0.025-0.922,0.59-1.417,1.486-1.39C574.444,426.715,574.898,427.281,574.937,428.213z"/>
<path fill="#FEF0F1" d="M595.617,414.756c-0.112,0.876-0.598,1.38-1.517,1.348c-0.928-0.033-1.408-0.581-1.37-1.487
	c0.037-0.907,0.57-1.409,1.49-1.376C595.148,413.274,595.569,413.84,595.617,414.756z"/>
<path fill="#F5F6F6" d="M607.469,397.898c0.487-0.317,0.946-0.83,1.467-0.905c0.805-0.116,1.415,0.495,1.233,1.272
	c-0.115,0.491-0.788,1.167-1.23,1.182c-0.485,0.017-0.993-0.631-1.491-0.989C607.456,398.271,607.462,398.085,607.469,397.898z"/>
</svg>
