<?xml version="1.0" encoding="utf-8"?>
<!-- Generator: Adobe Illustrator 17.0.0, SVG Export Plug-In . SVG Version: 6.00 Build 0)  -->
<!DOCTYPE svg PUBLIC "-//W3C//DTD SVG 1.1//EN" "http://www.w3.org/Graphics/SVG/1.1/DTD/svg11.dtd">
<svg version="1.1" id="Layer_1" xmlns="http://www.w3.org/2000/svg" xmlns:xlink="http://www.w3.org/1999/xlink" x="0px" y="0px"
	 width="1190.55px" height="841.89px" viewBox="0 0 1190.55 841.89" enable-background="new 0 0 1190.55 841.89"
	 xml:space="preserve">
<path fill="#E53C6E" d="M581.219,427.326c2.216-1.905,4.629-3.511,7.41-4.446c8.86-2.979,16.792-1.34,23.761,4.9
	c0.155,0.139,0.274,0.318,0.409,0.478c-0.247-0.004-0.362,0.191-0.508,0.339c-0.488,0.495-0.983,0.982-1.463,1.485
	c-1.091,1.142-2.278,2.19-3.301,3.397c-0.128-0.107-0.26-0.21-0.384-0.323c-3.842-3.488-8.336-4.875-13.432-3.912
	c-8.347,1.578-13.675,9.389-12.26,17.807c1.803,10.723,14.434,16.195,23.5,10.195c1.282-0.849,2.36-1.915,3.455-2.97
	c0.004,0.192,0.142,0.297,0.269,0.406c0.795,0.683,1.607,1.348,2.384,2.05c0.944,0.853,2.013,1.565,2.843,2.544
	c-3.533,4.1-7.98,6.621-13.288,7.595c-9.6,1.76-19.347-2.897-24.067-11.448c-2.233-4.046-3.076-8.389-2.818-12.974l0.033-0.015
	l-0.032-0.019c0.003-0.15,0.006-0.3,0.009-0.449c0.36-1.107,0.324-2.292,0.659-3.404c0.571-1.898,1.247-3.757,2.257-5.468
	c1.058-1.794,2.216-3.515,3.797-4.92C580.719,427.937,581.146,427.767,581.219,427.326z"/>
<path fill="#4E4E4E" d="M607.527,433.479c1.023-1.207,2.21-2.256,3.301-3.397c0.48-0.502,0.975-0.99,1.463-1.485
	c0.146-0.148,0.261-0.342,0.508-0.339c1.409,1.216,2.482,2.71,3.417,4.293c2.779,4.706,3.799,9.784,2.998,15.192
	c-0.644,4.351-2.404,8.212-5.31,11.533c-0.83-0.979-1.9-1.691-2.843-2.544c-0.778-0.703-1.589-1.367-2.384-2.05
	c-0.127-0.109-0.265-0.214-0.269-0.406c0.059-0.108,0.103-0.228,0.178-0.322c1.442-1.812,2.44-3.833,2.965-6.095
	c0.799-3.438,0.453-6.75-0.997-9.96C609.807,436.243,608.728,434.82,607.527,433.479z"/>
<path fill="#4E4E4E" d="M581.219,427.326c-0.073,0.441-0.5,0.611-0.767,0.849c-1.581,1.405-2.739,3.126-3.797,4.92
	c-1.01,1.711-1.686,3.571-2.257,5.468c-0.334,1.112-0.298,2.297-0.659,3.404c-0.014-1.651-0.039-3.301-0.04-4.951
	c-0.004-6.246,0.006-12.491-0.013-18.737c-0.002-0.539,0.151-0.67,0.673-0.663c2.053,0.028,4.108,0.042,6.16-0.015
	c0.666-0.019,0.686,0.309,0.686,0.771c-0.001,1.778-0.002,3.557,0,5.335C581.207,424.913,581.214,426.119,581.219,427.326z"/>
<g>
	<path fill="#4E4E4E" d="M533.288,392.858v1.669h-1.299v-12.309h1.299v5.346c0.708-1.046,1.737-1.939,3.338-1.939
		c2.091,0,4.165,1.652,4.165,4.519v0.034c0,2.85-2.057,4.535-4.165,4.535C535.007,394.713,533.962,393.836,533.288,392.858z
		 M539.459,390.194v-0.034c0-2.057-1.417-3.372-3.069-3.372c-1.619,0-3.153,1.365-3.153,3.355v0.034
		c0,2.023,1.534,3.372,3.153,3.372C538.076,393.549,539.459,392.302,539.459,390.194z"/>
	<path fill="#4E4E4E" d="M542.955,391.998v-0.034c0-1.872,1.518-2.85,3.727-2.85c1.113,0,1.888,0.152,2.664,0.371v-0.27
		c0-1.551-0.945-2.361-2.58-2.361c-1.029,0-1.838,0.253-2.648,0.624l-0.388-1.063c0.961-0.438,1.888-0.741,3.17-0.741
		c1.231,0,2.192,0.337,2.816,0.961c0.607,0.607,0.91,1.45,0.91,2.563v5.328h-1.281v-1.298c-0.608,0.776-1.602,1.483-3.136,1.483
		C544.573,394.713,542.955,393.785,542.955,391.998z M549.362,391.323v-0.809c-0.641-0.185-1.483-0.371-2.546-0.371
		c-1.619,0-2.546,0.708-2.546,1.753v0.034c0,1.096,1.012,1.737,2.192,1.737C548.064,393.667,549.362,392.706,549.362,391.323z"/>
	<path fill="#4E4E4E" d="M553.802,385.81h1.299v1.518c0.573-0.945,1.483-1.703,2.984-1.703c2.108,0,3.339,1.416,3.339,3.49v5.413
		h-1.299v-5.092c0-1.619-0.877-2.631-2.411-2.631c-1.501,0-2.613,1.096-2.613,2.731v4.991h-1.299V385.81z"/>
	<path fill="#4E4E4E" d="M565.072,392.217v-5.261h-1.214v-1.146h1.214v-2.631h1.298v2.631h2.765v1.146h-2.765v5.092
		c0,1.063,0.59,1.451,1.467,1.451c0.438,0,0.809-0.084,1.264-0.303v1.113c-0.455,0.236-0.944,0.371-1.568,0.371
		C566.134,394.679,565.072,393.988,565.072,392.217z"/>
	<path fill="#4E4E4E" d="M575.445,393.6c1.197,0,2.04-0.489,2.749-1.231l0.809,0.725c-0.876,0.978-1.939,1.636-3.592,1.636
		c-2.394,0-4.35-1.838-4.35-4.553c0-2.529,1.77-4.553,4.182-4.553c2.58,0,4.063,2.057,4.063,4.62c0,0.118,0,0.253-0.016,0.455
		h-6.913C572.561,392.538,573.91,393.6,575.445,393.6z M577.99,389.654c-0.151-1.584-1.062-2.933-2.782-2.933
		c-1.501,0-2.648,1.247-2.833,2.933H577.99z"/>
	<path fill="#4E4E4E" d="M582.009,385.81h1.299v2.276c0.641-1.45,1.906-2.495,3.557-2.428v1.4h-0.1
		c-1.906,0-3.457,1.365-3.457,3.996v3.474h-1.299V385.81z"/>
	<path fill="#E53C6E" d="M594.206,390.211v-0.034c0-2.462,1.922-4.553,4.469-4.553c1.652,0,2.68,0.691,3.49,1.551l-0.859,0.91
		c-0.692-0.725-1.468-1.315-2.648-1.315c-1.77,0-3.119,1.501-3.119,3.373v0.034c0,1.888,1.383,3.389,3.204,3.389
		c1.112,0,1.973-0.557,2.663-1.298l0.827,0.776c-0.877,0.978-1.922,1.686-3.557,1.686
		C596.128,394.73,594.206,392.656,594.206,390.211z"/>
	<path fill="#E53C6E" d="M604.801,382.218h1.299v5.109c0.573-0.945,1.484-1.703,2.985-1.703c2.107,0,3.338,1.416,3.338,3.49v5.413
		h-1.297v-5.092c0-1.619-0.877-2.631-2.412-2.631c-1.501,0-2.613,1.096-2.613,2.731v4.991h-1.299V382.218z"/>
	<path fill="#E53C6E" d="M614.957,391.998v-0.034c0-1.872,1.518-2.85,3.726-2.85c1.113,0,1.889,0.152,2.665,0.371v-0.27
		c0-1.551-0.945-2.361-2.58-2.361c-1.028,0-1.838,0.253-2.647,0.624l-0.389-1.063c0.961-0.438,1.889-0.741,3.17-0.741
		c1.232,0,2.193,0.337,2.816,0.961c0.607,0.607,0.91,1.45,0.91,2.563v5.328h-1.281v-1.298c-0.607,0.776-1.602,1.483-3.137,1.483
		C616.575,394.713,614.957,393.785,614.957,391.998z M621.364,391.323v-0.809c-0.641-0.185-1.484-0.371-2.545-0.371
		c-1.619,0-2.547,0.708-2.547,1.753v0.034c0,1.096,1.012,1.737,2.193,1.737C620.065,393.667,621.364,392.706,621.364,391.323z"/>
	<path fill="#E53C6E" d="M625.804,385.81h1.299v1.518c0.573-0.945,1.484-1.703,2.985-1.703c2.107,0,3.338,1.416,3.338,3.49v5.413
		h-1.297v-5.092c0-1.619-0.877-2.631-2.412-2.631c-1.501,0-2.613,1.096-2.613,2.731v4.991h-1.299V385.81z"/>
	<path fill="#E53C6E" d="M636.617,385.81h1.299v1.518c0.573-0.945,1.484-1.703,2.985-1.703c2.107,0,3.338,1.416,3.338,3.49v5.413
		h-1.297v-5.092c0-1.619-0.877-2.631-2.412-2.631c-1.501,0-2.613,1.096-2.613,2.731v4.991h-1.299V385.81z"/>
	<path fill="#E53C6E" d="M651.275,393.6c1.197,0,2.04-0.489,2.749-1.231l0.81,0.725c-0.877,0.978-1.94,1.636-3.592,1.636
		c-2.394,0-4.351-1.838-4.351-4.553c0-2.529,1.771-4.553,4.182-4.553c2.58,0,4.064,2.057,4.064,4.62c0,0.118,0,0.253-0.018,0.455
		h-6.913C648.392,392.538,649.741,393.6,651.275,393.6z M653.822,389.654c-0.152-1.584-1.063-2.933-2.783-2.933
		c-1.501,0-2.647,1.247-2.832,2.933H653.822z"/>
	<path fill="#E53C6E" d="M657.958,382.218h1.299v12.309h-1.299V382.218z"/>
</g>
<g>
	<path fill="#4E4E4E" d="M586.036,377.842v-2.63h-0.546v-0.573h0.546v-1.315h0.585v1.315h1.245v0.573h-1.245v2.546
		c0,0.531,0.265,0.725,0.66,0.725c0.198,0,0.364-0.043,0.57-0.152v0.556c-0.206,0.118-0.426,0.186-0.707,0.186
		C586.514,379.073,586.036,378.727,586.036,377.842z"/>
	<path fill="#4E4E4E" d="M590.416,372.843H591v2.554c0.258-0.472,0.669-0.852,1.344-0.852c0.95,0,1.505,0.708,1.505,1.746v2.706
		h-0.585v-2.546c0-0.809-0.395-1.315-1.086-1.315c-0.677,0-1.178,0.548-1.178,1.366v2.495h-0.585V372.843z"/>
	<path fill="#4E4E4E" d="M598.343,378.534c0.538,0,0.918-0.245,1.237-0.616l0.365,0.362c-0.395,0.489-0.873,0.818-1.617,0.818
		c-1.079,0-1.961-0.918-1.961-2.276c0-1.264,0.798-2.276,1.884-2.276c1.161,0,1.83,1.029,1.83,2.311c0,0.059,0,0.126-0.007,0.227
		h-3.114C597.044,378.003,597.651,378.534,598.343,378.534z M599.489,376.561c-0.069-0.793-0.479-1.467-1.254-1.467
		c-0.675,0-1.192,0.624-1.275,1.467H599.489z"/>
</g>
</svg>
